<svg xmlns="http://www.w3.org/2000/svg" xmlns:xlink="http://www.w3.org/1999/xlink" width="500" zoomAndPan="magnify" viewBox="0 0 375 374.999991" height="500" preserveAspectRatio="xMidYMid meet" version="1.2"><defs><clipPath id="6ba3ecb2b8"><path d="M 188.046875 165.675781 L 301.296875 165.675781 L 301.296875 191 L 188.046875 191 Z M 188.046875 165.675781 "/></clipPath></defs><g id="fde879e833"><rect x="0" width="375" y="0" height="374.999991" style="fill:#ffffff;fill-opacity:1;stroke:none;"/><rect x="0" width="375" y="0" height="374.999991" style="fill:#f1eee9;fill-opacity:1;stroke:none;"/><g clip-rule="nonzero" clip-path="url(#6ba3ecb2b8)"><path style=" stroke:none;fill-rule:nonzero;fill:#8f5d46;fill-opacity:1;" d="M 300.742188 165.675781 C 299.023438 170.335938 296.40625 174.4375 292.894531 177.984375 C 289.382812 181.53125 285.15625 184.238281 280.210938 186.101562 C 275.265625 187.964844 269.675781 188.878906 263.4375 188.84375 C 257.203125 188.808594 250.464844 187.535156 243.226562 185.027344 C 238.640625 183.449219 234.414062 182.359375 230.542969 181.746094 C 226.671875 181.140625 223 180.960938 219.523438 181.210938 C 216.046875 181.460938 212.679688 182.109375 209.417969 183.144531 C 206.15625 184.183594 202.804688 185.492188 199.367188 187.070312 C 198.21875 187.570312 197.179688 188.074219 196.25 188.574219 C 195.316406 189.078125 194.421875 189.417969 193.5625 189.59375 C 192.699219 189.773438 191.789062 189.722656 190.820312 189.433594 C 190.144531 189.234375 189.386719 188.855469 188.550781 188.300781 C 188.460938 188.320312 188.367188 188.332031 188.265625 188.332031 C 188.203125 188.394531 188.136719 188.449219 188.0625 188.496094 L 188.0625 189.070312 C 188.21875 189.171875 188.34375 189.304688 188.4375 189.457031 C 189.335938 190 190.164062 190.351562 190.925781 190.507812 C 191.964844 190.722656 192.953125 190.742188 193.882812 190.5625 C 194.8125 190.386719 195.765625 190.0625 196.730469 189.59375 C 197.699219 189.128906 198.792969 188.609375 200.011719 188.035156 C 203.164062 186.605469 206.335938 185.386719 209.523438 184.382812 C 212.714844 183.378906 216.046875 182.734375 219.523438 182.445312 C 223 182.160156 226.652344 182.339844 230.488281 182.984375 C 234.320312 183.628906 238.460938 184.882812 242.90625 186.746094 C 248.136719 188.894531 253.78125 190.097656 259.835938 190.347656 C 265.894531 190.601562 271.699219 189.882812 277.253906 188.199219 C 282.808594 186.515625 287.753906 183.828125 292.089844 180.136719 C 296.425781 176.445312 299.488281 171.695312 301.28125 165.890625 Z M 300.742188 165.675781 "/></g><g style="fill:#8f5d46;fill-opacity:1;"><g transform="translate(65.332031, 195.60819)"><path style="stroke:none" d="M 45.3125 -31.234375 C 45.382812 -30.046875 45.320312 -28.476562 45.125 -26.53125 C 44.9375 -24.59375 44.65625 -22.394531 44.28125 -19.9375 C 43.90625 -17.476562 43.46875 -14.878906 42.96875 -12.140625 C 42.476562 -9.398438 41.976562 -6.644531 41.46875 -3.875 C 41.132812 -1.945312 40.785156 0.0195312 40.421875 2.03125 C 40.054688 4.050781 39.722656 5.984375 39.421875 7.828125 C 39.117188 9.679688 38.882812 11.3125 38.71875 12.71875 C 38.550781 14.132812 38.476562 15.191406 38.5 15.890625 C 38.59375 15.722656 38.703125 15.539062 38.828125 15.34375 C 38.921875 15.175781 39.054688 15.066406 39.234375 15.015625 C 39.421875 14.972656 39.597656 15 39.765625 15.09375 C 39.929688 15.1875 40.039062 15.320312 40.09375 15.5 C 40.144531 15.6875 40.117188 15.863281 40.015625 16.03125 C 39.734375 16.507812 39.421875 16.945312 39.078125 17.34375 C 38.742188 17.75 38.347656 17.878906 37.890625 17.734375 C 37.617188 17.609375 37.414062 17.347656 37.28125 16.953125 C 37.15625 16.554688 37.109375 15.90625 37.140625 15 C 37.179688 14.09375 37.3125 12.835938 37.53125 11.234375 C 37.75 9.628906 38.066406 7.570312 38.484375 5.0625 C 38.910156 2.550781 39.457031 -0.5 40.125 -4.09375 C 40.582031 -6.738281 41.050781 -9.410156 41.53125 -12.109375 C 42.019531 -14.816406 42.457031 -17.398438 42.84375 -19.859375 C 43.226562 -22.328125 43.523438 -24.535156 43.734375 -26.484375 C 43.941406 -28.441406 44.007812 -29.988281 43.9375 -31.125 C 43.882812 -31.820312 43.785156 -32.332031 43.640625 -32.65625 C 43.492188 -32.976562 43.347656 -33.15625 43.203125 -33.1875 C 43.203125 -33.1875 43.191406 -33.1875 43.171875 -33.1875 C 42.929688 -33.1875 42.507812 -32.925781 41.90625 -32.40625 C 41.300781 -31.882812 40.546875 -30.957031 39.640625 -29.625 C 38.734375 -28.300781 37.664062 -26.425781 36.4375 -24 C 35.1875 -21.488281 33.628906 -17.910156 31.765625 -13.265625 C 29.910156 -8.617188 27.9375 -2.65625 25.84375 4.625 C 25.71875 5.0625 25.4375 5.234375 25 5.140625 C 24.570312 5.046875 24.394531 4.78125 24.46875 4.34375 C 26.15625 -5.59375 27.054688 -13.0625 27.171875 -18.0625 C 27.222656 -19.601562 27.195312 -20.8125 27.09375 -21.6875 C 27 -22.570312 26.878906 -23.210938 26.734375 -23.609375 C 26.597656 -24.003906 26.472656 -24.253906 26.359375 -24.359375 C 26.253906 -24.472656 26.1875 -24.546875 26.15625 -24.578125 C 26.132812 -24.578125 26.019531 -24.539062 25.8125 -24.46875 C 25.613281 -24.394531 25.296875 -24.148438 24.859375 -23.734375 C 24.421875 -23.328125 23.859375 -22.613281 23.171875 -21.59375 C 22.484375 -20.582031 21.65625 -19.148438 20.6875 -17.296875 C 19.726562 -15.441406 18.597656 -13.03125 17.296875 -10.0625 C 15.972656 -7 14.640625 -3.6875 13.296875 -0.125 C 11.960938 3.4375 10.675781 7.082031 9.4375 10.8125 C 8.207031 14.550781 7.085938 18.222656 6.078125 21.828125 C 6.078125 21.828125 6.078125 21.835938 6.078125 21.859375 C 5.910156 22.296875 5.734375 22.679688 5.546875 23.015625 C 5.367188 23.347656 5.132812 23.515625 4.84375 23.515625 C 4.769531 23.515625 4.6875 23.503906 4.59375 23.484375 C 4.257812 23.367188 4.082031 23.109375 4.0625 22.703125 C 4.050781 22.304688 4.109375 21.6875 4.234375 20.84375 C 4.398438 19.707031 4.691406 18.078125 5.109375 15.953125 C 5.828125 12.316406 6.882812 7.328125 8.28125 0.984375 C 8.914062 -1.941406 9.550781 -4.820312 10.1875 -7.65625 C 10.820312 -10.488281 11.414062 -13.113281 11.96875 -15.53125 C 12.53125 -17.957031 13.015625 -20.039062 13.421875 -21.78125 C 13.835938 -23.519531 14.128906 -24.738281 14.296875 -25.4375 C 14.679688 -27.101562 14.878906 -28.363281 14.890625 -29.21875 C 14.898438 -30.070312 14.828125 -30.664062 14.671875 -31 C 14.515625 -31.34375 14.390625 -31.550781 14.296875 -31.625 C 14.023438 -31.789062 13.617188 -31.765625 13.078125 -31.546875 C 12.535156 -31.335938 11.914062 -30.96875 11.21875 -30.4375 C 10.28125 -29.707031 9.316406 -28.765625 8.328125 -27.609375 C 7.335938 -26.453125 6.398438 -25.1875 5.515625 -23.8125 C 4.640625 -22.4375 3.894531 -21.039062 3.28125 -19.625 C 2.664062 -18.21875 2.242188 -16.863281 2.015625 -15.5625 C 1.785156 -14.257812 1.835938 -13.113281 2.171875 -12.125 C 2.867188 -10.050781 4.867188 -8.988281 8.171875 -8.9375 C 8.367188 -8.9375 8.53125 -8.863281 8.65625 -8.71875 C 8.789062 -8.570312 8.859375 -8.40625 8.859375 -8.21875 C 8.859375 -8.019531 8.785156 -7.851562 8.640625 -7.71875 C 8.503906 -7.59375 8.347656 -7.53125 8.171875 -7.53125 C 8.171875 -7.53125 8.164062 -7.53125 8.15625 -7.53125 C 8.144531 -7.53125 8.140625 -7.53125 8.140625 -7.53125 C 7.242188 -7.550781 6.300781 -7.675781 5.3125 -7.90625 C 4.320312 -8.132812 3.421875 -8.546875 2.609375 -9.140625 C 1.804688 -9.734375 1.210938 -10.582031 0.828125 -11.6875 C 0.535156 -12.582031 0.421875 -13.523438 0.484375 -14.515625 C 0.546875 -15.503906 0.722656 -16.484375 1.015625 -17.453125 C 1.304688 -18.429688 1.632812 -19.347656 2 -20.203125 C 2.375 -21.066406 2.734375 -21.8125 3.078125 -22.4375 C 4.066406 -24.25 5.210938 -25.972656 6.515625 -27.609375 C 7.816406 -29.253906 9.109375 -30.570312 10.390625 -31.5625 C 11.617188 -32.5 12.601562 -32.992188 13.34375 -33.046875 C 14.09375 -33.109375 14.660156 -33.019531 15.046875 -32.78125 C 16.453125 -31.894531 16.648438 -29.335938 15.640625 -25.109375 C 15.367188 -24.003906 15.019531 -22.539062 14.59375 -20.71875 C 14.175781 -18.894531 13.707031 -16.835938 13.1875 -14.546875 C 12.664062 -12.253906 12.113281 -9.832031 11.53125 -7.28125 C 10.957031 -4.738281 10.382812 -2.1875 9.8125 0.375 C 9.25 2.945312 8.707031 5.429688 8.1875 7.828125 C 7.675781 10.234375 7.226562 12.425781 6.84375 14.40625 C 7.757812 11.488281 8.722656 8.566406 9.734375 5.640625 C 10.742188 2.722656 11.78125 -0.109375 12.84375 -2.859375 C 13.90625 -5.609375 14.96875 -8.203125 16.03125 -10.640625 C 17.425781 -13.847656 18.65625 -16.445312 19.71875 -18.4375 C 20.78125 -20.425781 21.695312 -21.953125 22.46875 -23.015625 C 23.238281 -24.078125 23.890625 -24.8125 24.421875 -25.21875 C 24.953125 -25.632812 25.378906 -25.863281 25.703125 -25.90625 C 26.035156 -25.957031 26.296875 -25.957031 26.484375 -25.90625 C 26.828125 -25.832031 27.15625 -25.613281 27.46875 -25.25 C 27.78125 -24.894531 28.035156 -24.285156 28.234375 -23.421875 C 28.441406 -22.566406 28.5625 -21.363281 28.59375 -19.8125 C 28.632812 -18.257812 28.550781 -16.265625 28.34375 -13.828125 C 28.144531 -11.390625 27.804688 -8.394531 27.328125 -4.84375 C 28.796875 -9.3125 30.28125 -13.382812 31.78125 -17.0625 C 33.289062 -20.738281 34.757812 -23.894531 36.1875 -26.53125 C 37.613281 -29.175781 38.941406 -31.195312 40.171875 -32.59375 C 41.398438 -34 42.472656 -34.65625 43.390625 -34.5625 C 44.523438 -34.4375 45.164062 -33.328125 45.3125 -31.234375 Z M 45.3125 -31.234375 "/></g></g><g style="fill:#8f5d46;fill-opacity:1;"><g transform="translate(111.181558, 195.60819)"><path style="stroke:none" d="M 10.609375 -8.25 C 10.773438 -8.15625 10.875 -8.007812 10.90625 -7.8125 C 10.945312 -7.625 10.914062 -7.445312 10.8125 -7.28125 C 10.351562 -6.550781 9.773438 -5.738281 9.078125 -4.84375 C 8.378906 -3.957031 7.617188 -3.109375 6.796875 -2.296875 C 5.984375 -1.484375 5.171875 -0.8125 4.359375 -0.28125 C 3.546875 0.238281 2.804688 0.5 2.140625 0.5 C 1.847656 0.5 1.59375 0.453125 1.375 0.359375 C 0.550781 -0.00390625 0.0976562 -0.878906 0.015625 -2.265625 C -0.0664062 -3.648438 0.21875 -5.609375 0.875 -8.140625 C 0.914062 -8.335938 1.019531 -8.484375 1.1875 -8.578125 C 1.363281 -8.671875 1.535156 -8.695312 1.703125 -8.65625 C 1.890625 -8.601562 2.03125 -8.488281 2.125 -8.3125 C 2.226562 -8.144531 2.253906 -7.976562 2.203125 -7.8125 C 1.816406 -6.269531 1.578125 -5.046875 1.484375 -4.140625 C 1.390625 -3.234375 1.367188 -2.550781 1.421875 -2.09375 C 1.484375 -1.632812 1.570312 -1.328125 1.6875 -1.171875 C 1.8125 -1.015625 1.890625 -0.9375 1.921875 -0.9375 C 2.234375 -0.789062 2.691406 -0.890625 3.296875 -1.234375 C 3.898438 -1.585938 4.570312 -2.109375 5.3125 -2.796875 C 6.0625 -3.484375 6.816406 -4.28125 7.578125 -5.1875 C 8.335938 -6.09375 9.019531 -7.039062 9.625 -8.03125 C 9.75 -8.195312 9.898438 -8.296875 10.078125 -8.328125 C 10.253906 -8.367188 10.429688 -8.34375 10.609375 -8.25 Z M 2.0625 -11.140625 C 1.582031 -11.171875 1.332031 -11.3125 1.3125 -11.5625 C 1.300781 -11.8125 1.410156 -12.066406 1.640625 -12.328125 C 1.867188 -12.597656 2.109375 -12.78125 2.359375 -12.875 C 2.742188 -13 3.023438 -12.976562 3.203125 -12.8125 C 3.378906 -12.644531 3.460938 -12.425781 3.453125 -12.15625 C 3.441406 -11.894531 3.320312 -11.65625 3.09375 -11.4375 C 2.863281 -11.21875 2.519531 -11.117188 2.0625 -11.140625 Z M 2.0625 -11.140625 "/></g></g><g style="fill:#8f5d46;fill-opacity:1;"><g transform="translate(120.119816, 195.60819)"><path style="stroke:none" d="M 20.40625 -8.109375 C 20.550781 -7.984375 20.628906 -7.820312 20.640625 -7.625 C 20.648438 -7.4375 20.597656 -7.269531 20.484375 -7.125 C 17.421875 -3.53125 14.992188 -2.070312 13.203125 -2.75 C 11.929688 -3.226562 11.242188 -4.757812 11.140625 -7.34375 C 10.878906 -6.863281 10.597656 -6.316406 10.296875 -5.703125 C 9.992188 -5.085938 9.742188 -4.585938 9.546875 -4.203125 C 9.410156 -3.835938 9.269531 -3.507812 9.125 -3.21875 C 8.976562 -2.925781 8.84375 -2.6875 8.71875 -2.5 C 8.644531 -2.351562 8.515625 -2.140625 8.328125 -1.859375 C 8.148438 -1.585938 7.921875 -1.347656 7.640625 -1.140625 C 7.367188 -0.929688 7.050781 -0.878906 6.6875 -0.984375 C 6.257812 -1.097656 5.9375 -1.414062 5.71875 -1.9375 C 5.5 -2.457031 5.363281 -3.023438 5.3125 -3.640625 C 5.269531 -4.253906 5.25 -4.753906 5.25 -5.140625 C 5.25 -5.453125 5.25 -5.753906 5.25 -6.046875 C 5.25 -6.335938 5.257812 -6.601562 5.28125 -6.84375 C 4.4375 -5.632812 3.628906 -4.382812 2.859375 -3.09375 C 2.085938 -1.800781 1.265625 -0.320312 0.390625 1.34375 C 0.109375 1.894531 -0.203125 2.171875 -0.546875 2.171875 C -0.660156 2.171875 -0.769531 2.132812 -0.875 2.0625 C -0.988281 2.007812 -1.09375 1.929688 -1.1875 1.828125 C -1.289062 1.722656 -1.347656 1.503906 -1.359375 1.171875 C -1.367188 0.847656 -1.316406 0.347656 -1.203125 -0.328125 C -1.097656 -1.003906 -0.890625 -1.941406 -0.578125 -3.140625 C -0.210938 -4.617188 0.210938 -6.082031 0.703125 -7.53125 C 1.203125 -8.976562 1.703125 -10.28125 2.203125 -11.4375 C 2.273438 -11.625 2.398438 -11.753906 2.578125 -11.828125 C 2.765625 -11.898438 2.941406 -11.890625 3.109375 -11.796875 C 3.304688 -11.722656 3.429688 -11.59375 3.484375 -11.40625 C 3.546875 -11.226562 3.539062 -11.054688 3.46875 -10.890625 C 2.820312 -9.367188 2.238281 -7.78125 1.71875 -6.125 C 1.195312 -4.476562 0.789062 -3.039062 0.5 -1.8125 C 1.25 -3.132812 1.984375 -4.367188 2.703125 -5.515625 C 3.429688 -6.660156 4.195312 -7.773438 5 -8.859375 C 5.070312 -8.960938 5.195312 -9.097656 5.375 -9.265625 C 5.550781 -9.429688 5.796875 -9.46875 6.109375 -9.375 C 6.429688 -9.25 6.609375 -9.015625 6.640625 -8.671875 C 6.671875 -8.335938 6.675781 -7.773438 6.65625 -6.984375 C 6.65625 -6.722656 6.648438 -6.429688 6.640625 -6.109375 C 6.628906 -5.796875 6.625 -5.472656 6.625 -5.140625 C 6.625 -4.410156 6.671875 -3.816406 6.765625 -3.359375 C 6.859375 -2.898438 6.941406 -2.585938 7.015625 -2.421875 C 7.066406 -2.472656 7.132812 -2.554688 7.21875 -2.671875 C 7.300781 -2.796875 7.40625 -2.953125 7.53125 -3.140625 C 7.625 -3.316406 7.734375 -3.546875 7.859375 -3.828125 C 7.992188 -4.117188 8.148438 -4.4375 8.328125 -4.78125 C 8.953125 -6.125 9.460938 -7.15625 9.859375 -7.875 C 10.253906 -8.601562 10.597656 -9.097656 10.890625 -9.359375 C 11.179688 -9.628906 11.484375 -9.726562 11.796875 -9.65625 C 12.179688 -9.5625 12.40625 -9.328125 12.46875 -8.953125 C 12.53125 -8.578125 12.5625 -8.28125 12.5625 -8.0625 C 12.53125 -6.9375 12.617188 -6.019531 12.828125 -5.3125 C 13.035156 -4.613281 13.332031 -4.191406 13.71875 -4.046875 C 14.144531 -3.878906 14.832031 -4.070312 15.78125 -4.625 C 16.738281 -5.1875 17.957031 -6.320312 19.4375 -8.03125 C 19.550781 -8.175781 19.703125 -8.253906 19.890625 -8.265625 C 20.085938 -8.273438 20.257812 -8.222656 20.40625 -8.109375 Z M 20.40625 -8.109375 "/></g></g><g style="fill:#8f5d46;fill-opacity:1;"><g transform="translate(138.973487, 195.60819)"><path style="stroke:none" d="M 13.09375 -7.890625 C 13.269531 -7.765625 13.367188 -7.601562 13.390625 -7.40625 C 13.410156 -7.21875 13.363281 -7.050781 13.25 -6.90625 C 12.613281 -6.113281 11.878906 -5.398438 11.046875 -4.765625 C 10.222656 -4.140625 9.359375 -3.675781 8.453125 -3.375 C 7.546875 -3.082031 6.671875 -3.03125 5.828125 -3.21875 C 5.484375 -2.375 5.003906 -1.722656 4.390625 -1.265625 C 3.773438 -0.804688 3.15625 -0.578125 2.53125 -0.578125 C 2.53125 -0.578125 2.523438 -0.578125 2.515625 -0.578125 C 2.503906 -0.578125 2.5 -0.578125 2.5 -0.578125 C 1.84375 -0.597656 1.265625 -0.816406 0.765625 -1.234375 C 0.273438 -1.660156 -0.0625 -2.25 -0.25 -3 C -0.46875 -3.84375 -0.503906 -4.644531 -0.359375 -5.40625 C -0.210938 -6.164062 0.0507812 -6.832031 0.4375 -7.40625 C 0.820312 -7.988281 1.253906 -8.4375 1.734375 -8.75 C 1.898438 -8.875 2.09375 -8.898438 2.3125 -8.828125 C 2.53125 -9.359375 2.835938 -9.769531 3.234375 -10.0625 C 3.628906 -10.351562 4.046875 -10.460938 4.484375 -10.390625 C 4.753906 -10.335938 5.046875 -10.171875 5.359375 -9.890625 C 5.671875 -9.617188 5.921875 -9.125 6.109375 -8.40625 C 6.304688 -7.695312 6.367188 -6.65625 6.296875 -5.28125 C 6.273438 -5.039062 6.238281 -4.800781 6.1875 -4.5625 C 6.84375 -4.4375 7.53125 -4.503906 8.25 -4.765625 C 8.976562 -5.035156 9.675781 -5.441406 10.34375 -5.984375 C 11.019531 -6.523438 11.613281 -7.125 12.125 -7.78125 C 12.238281 -7.925781 12.390625 -8.007812 12.578125 -8.03125 C 12.773438 -8.050781 12.945312 -8.003906 13.09375 -7.890625 Z M 2.53125 -1.984375 C 2.84375 -1.984375 3.191406 -2.128906 3.578125 -2.421875 C 3.960938 -2.710938 4.273438 -3.148438 4.515625 -3.734375 C 3.648438 -4.210938 3.03125 -4.765625 2.65625 -5.390625 C 2.28125 -6.015625 2.082031 -6.644531 2.0625 -7.28125 C 1.550781 -6.789062 1.21875 -6.171875 1.0625 -5.421875 C 0.90625 -4.679688 0.910156 -4.007812 1.078125 -3.40625 C 1.148438 -3.132812 1.296875 -2.828125 1.515625 -2.484375 C 1.734375 -2.148438 2.070312 -1.984375 2.53125 -1.984375 Z M 4.890625 -5.359375 C 4.929688 -6.316406 4.910156 -7.0625 4.828125 -7.59375 C 4.742188 -8.125 4.640625 -8.484375 4.515625 -8.671875 C 4.398438 -8.867188 4.316406 -8.984375 4.265625 -9.015625 C 4.242188 -9.015625 4.234375 -9.015625 4.234375 -9.015625 C 4.160156 -9.015625 4.050781 -8.941406 3.90625 -8.796875 C 3.757812 -8.648438 3.640625 -8.429688 3.546875 -8.140625 C 3.398438 -7.679688 3.410156 -7.179688 3.578125 -6.640625 C 3.742188 -6.097656 4.179688 -5.597656 4.890625 -5.140625 C 4.890625 -5.210938 4.890625 -5.285156 4.890625 -5.359375 Z M 4.890625 -5.359375 "/></g></g><g style="fill:#8f5d46;fill-opacity:1;"><g transform="translate(150.553477, 195.60819)"><path style="stroke:none" d="M 14.578125 -8.0625 C 14.753906 -7.96875 14.863281 -7.828125 14.90625 -7.640625 C 14.957031 -7.460938 14.9375 -7.289062 14.84375 -7.125 C 13.707031 -5.125 12.6875 -3.585938 11.78125 -2.515625 C 10.875 -1.441406 9.953125 -0.960938 9.015625 -1.078125 C 7.804688 -1.222656 6.851562 -2.53125 6.15625 -5 C 5.914062 -5.789062 5.703125 -6.359375 5.515625 -6.703125 C 5.335938 -7.054688 5.191406 -7.273438 5.078125 -7.359375 C 4.972656 -7.441406 4.894531 -7.484375 4.84375 -7.484375 C 4.769531 -7.515625 4.625 -7.441406 4.40625 -7.265625 C 4.195312 -7.097656 3.882812 -6.722656 3.46875 -6.140625 C 3.0625 -5.566406 2.554688 -4.671875 1.953125 -3.453125 C 1.347656 -2.234375 0.613281 -0.5625 -0.25 1.5625 C -0.375 1.84375 -0.582031 1.984375 -0.875 1.984375 C -0.945312 1.984375 -1.003906 1.972656 -1.046875 1.953125 C -1.460938 1.859375 -1.644531 1.601562 -1.59375 1.1875 C -1.46875 0.195312 -1.25 -0.945312 -0.9375 -2.25 C -0.625 -3.550781 -0.28125 -4.875 0.09375 -6.21875 C 0.46875 -7.570312 0.8125 -8.78125 1.125 -9.84375 C 1.195312 -10.082031 1.257812 -10.300781 1.3125 -10.5 C 1.375 -10.707031 1.429688 -10.910156 1.484375 -11.109375 C 1.554688 -11.304688 1.675781 -11.445312 1.84375 -11.53125 C 2.007812 -11.613281 2.179688 -11.628906 2.359375 -11.578125 C 2.546875 -11.523438 2.6875 -11.414062 2.78125 -11.25 C 2.882812 -11.082031 2.898438 -10.90625 2.828125 -10.71875 C 2.773438 -10.519531 2.71875 -10.316406 2.65625 -10.109375 C 2.59375 -9.910156 2.523438 -9.6875 2.453125 -9.4375 C 2.285156 -8.8125 2.09375 -8.125 1.875 -7.375 C 1.664062 -6.632812 1.453125 -5.878906 1.234375 -5.109375 C 2.046875 -6.648438 2.742188 -7.671875 3.328125 -8.171875 C 3.910156 -8.679688 4.441406 -8.925781 4.921875 -8.90625 C 5.597656 -8.851562 6.128906 -8.476562 6.515625 -7.78125 C 6.898438 -7.082031 7.222656 -6.273438 7.484375 -5.359375 C 7.847656 -4.097656 8.1875 -3.296875 8.5 -2.953125 C 8.8125 -2.617188 9.039062 -2.453125 9.1875 -2.453125 C 9.5 -2.410156 9.863281 -2.585938 10.28125 -2.984375 C 10.707031 -3.378906 11.128906 -3.882812 11.546875 -4.5 C 11.972656 -5.113281 12.375 -5.722656 12.75 -6.328125 C 13.125 -6.929688 13.410156 -7.425781 13.609375 -7.8125 C 13.703125 -7.976562 13.84375 -8.085938 14.03125 -8.140625 C 14.226562 -8.191406 14.410156 -8.164062 14.578125 -8.0625 Z M 14.578125 -8.0625 "/></g></g><g style="fill:#8f5d46;fill-opacity:1;"><g transform="translate(163.472402, 195.60819)"><path style="stroke:none" d="M 13.09375 -7.890625 C 13.269531 -7.765625 13.367188 -7.601562 13.390625 -7.40625 C 13.410156 -7.21875 13.363281 -7.050781 13.25 -6.90625 C 12.613281 -6.113281 11.878906 -5.398438 11.046875 -4.765625 C 10.222656 -4.140625 9.359375 -3.675781 8.453125 -3.375 C 7.546875 -3.082031 6.671875 -3.03125 5.828125 -3.21875 C 5.484375 -2.375 5.003906 -1.722656 4.390625 -1.265625 C 3.773438 -0.804688 3.15625 -0.578125 2.53125 -0.578125 C 2.53125 -0.578125 2.523438 -0.578125 2.515625 -0.578125 C 2.503906 -0.578125 2.5 -0.578125 2.5 -0.578125 C 1.84375 -0.597656 1.265625 -0.816406 0.765625 -1.234375 C 0.273438 -1.660156 -0.0625 -2.25 -0.25 -3 C -0.46875 -3.84375 -0.503906 -4.644531 -0.359375 -5.40625 C -0.210938 -6.164062 0.0507812 -6.832031 0.4375 -7.40625 C 0.820312 -7.988281 1.253906 -8.4375 1.734375 -8.75 C 1.898438 -8.875 2.09375 -8.898438 2.3125 -8.828125 C 2.53125 -9.359375 2.835938 -9.769531 3.234375 -10.0625 C 3.628906 -10.351562 4.046875 -10.460938 4.484375 -10.390625 C 4.753906 -10.335938 5.046875 -10.171875 5.359375 -9.890625 C 5.671875 -9.617188 5.921875 -9.125 6.109375 -8.40625 C 6.304688 -7.695312 6.367188 -6.65625 6.296875 -5.28125 C 6.273438 -5.039062 6.238281 -4.800781 6.1875 -4.5625 C 6.84375 -4.4375 7.53125 -4.503906 8.25 -4.765625 C 8.976562 -5.035156 9.675781 -5.441406 10.34375 -5.984375 C 11.019531 -6.523438 11.613281 -7.125 12.125 -7.78125 C 12.238281 -7.925781 12.390625 -8.007812 12.578125 -8.03125 C 12.773438 -8.050781 12.945312 -8.003906 13.09375 -7.890625 Z M 2.53125 -1.984375 C 2.84375 -1.984375 3.191406 -2.128906 3.578125 -2.421875 C 3.960938 -2.710938 4.273438 -3.148438 4.515625 -3.734375 C 3.648438 -4.210938 3.03125 -4.765625 2.65625 -5.390625 C 2.28125 -6.015625 2.082031 -6.644531 2.0625 -7.28125 C 1.550781 -6.789062 1.21875 -6.171875 1.0625 -5.421875 C 0.90625 -4.679688 0.910156 -4.007812 1.078125 -3.40625 C 1.148438 -3.132812 1.296875 -2.828125 1.515625 -2.484375 C 1.734375 -2.148438 2.070312 -1.984375 2.53125 -1.984375 Z M 4.890625 -5.359375 C 4.929688 -6.316406 4.910156 -7.0625 4.828125 -7.59375 C 4.742188 -8.125 4.640625 -8.484375 4.515625 -8.671875 C 4.398438 -8.867188 4.316406 -8.984375 4.265625 -9.015625 C 4.242188 -9.015625 4.234375 -9.015625 4.234375 -9.015625 C 4.160156 -9.015625 4.050781 -8.941406 3.90625 -8.796875 C 3.757812 -8.648438 3.640625 -8.429688 3.546875 -8.140625 C 3.398438 -7.679688 3.410156 -7.179688 3.578125 -6.640625 C 3.742188 -6.097656 4.179688 -5.597656 4.890625 -5.140625 C 4.890625 -5.210938 4.890625 -5.285156 4.890625 -5.359375 Z M 4.890625 -5.359375 "/></g></g><g style="fill:#8f5d46;fill-opacity:1;"><g transform="translate(175.052392, 195.60819)"><path style="stroke:none" d="M 13.09375 -7.890625 C 13.269531 -7.765625 13.367188 -7.601562 13.390625 -7.40625 C 13.410156 -7.21875 13.363281 -7.050781 13.25 -6.90625 C 12.613281 -6.113281 11.878906 -5.398438 11.046875 -4.765625 C 10.222656 -4.140625 9.359375 -3.675781 8.453125 -3.375 C 7.546875 -3.082031 6.671875 -3.03125 5.828125 -3.21875 C 5.484375 -2.375 5.003906 -1.722656 4.390625 -1.265625 C 3.773438 -0.804688 3.15625 -0.578125 2.53125 -0.578125 C 2.53125 -0.578125 2.523438 -0.578125 2.515625 -0.578125 C 2.503906 -0.578125 2.5 -0.578125 2.5 -0.578125 C 1.84375 -0.597656 1.265625 -0.816406 0.765625 -1.234375 C 0.273438 -1.660156 -0.0625 -2.25 -0.25 -3 C -0.46875 -3.84375 -0.503906 -4.644531 -0.359375 -5.40625 C -0.210938 -6.164062 0.0507812 -6.832031 0.4375 -7.40625 C 0.820312 -7.988281 1.253906 -8.4375 1.734375 -8.75 C 1.898438 -8.875 2.09375 -8.898438 2.3125 -8.828125 C 2.53125 -9.359375 2.835938 -9.769531 3.234375 -10.0625 C 3.628906 -10.351562 4.046875 -10.460938 4.484375 -10.390625 C 4.753906 -10.335938 5.046875 -10.171875 5.359375 -9.890625 C 5.671875 -9.617188 5.921875 -9.125 6.109375 -8.40625 C 6.304688 -7.695312 6.367188 -6.65625 6.296875 -5.28125 C 6.273438 -5.039062 6.238281 -4.800781 6.1875 -4.5625 C 6.84375 -4.4375 7.53125 -4.503906 8.25 -4.765625 C 8.976562 -5.035156 9.675781 -5.441406 10.34375 -5.984375 C 11.019531 -6.523438 11.613281 -7.125 12.125 -7.78125 C 12.238281 -7.925781 12.390625 -8.007812 12.578125 -8.03125 C 12.773438 -8.050781 12.945312 -8.003906 13.09375 -7.890625 Z M 2.53125 -1.984375 C 2.84375 -1.984375 3.191406 -2.128906 3.578125 -2.421875 C 3.960938 -2.710938 4.273438 -3.148438 4.515625 -3.734375 C 3.648438 -4.210938 3.03125 -4.765625 2.65625 -5.390625 C 2.28125 -6.015625 2.082031 -6.644531 2.0625 -7.28125 C 1.550781 -6.789062 1.21875 -6.171875 1.0625 -5.421875 C 0.90625 -4.679688 0.910156 -4.007812 1.078125 -3.40625 C 1.148438 -3.132812 1.296875 -2.828125 1.515625 -2.484375 C 1.734375 -2.148438 2.070312 -1.984375 2.53125 -1.984375 Z M 4.890625 -5.359375 C 4.929688 -6.316406 4.910156 -7.0625 4.828125 -7.59375 C 4.742188 -8.125 4.640625 -8.484375 4.515625 -8.671875 C 4.398438 -8.867188 4.316406 -8.984375 4.265625 -9.015625 C 4.242188 -9.015625 4.234375 -9.015625 4.234375 -9.015625 C 4.160156 -9.015625 4.050781 -8.941406 3.90625 -8.796875 C 3.757812 -8.648438 3.640625 -8.429688 3.546875 -8.140625 C 3.398438 -7.679688 3.410156 -7.179688 3.578125 -6.640625 C 3.742188 -6.097656 4.179688 -5.597656 4.890625 -5.140625 C 4.890625 -5.210938 4.890625 -5.285156 4.890625 -5.359375 Z M 4.890625 -5.359375 "/></g></g><path style=" stroke:none;fill-rule:nonzero;fill:#8f5d46;fill-opacity:1;" d="M 65.332031 182.859375 L 186.632812 182.859375 L 186.632812 185.859375 L 65.332031 185.859375 Z M 65.332031 182.859375 "/><g style="fill:#8f5d46;fill-opacity:1;"><g transform="translate(193.325193, 205.892751)"><path style="stroke:none" d="M 7.25 -0.703125 C 6.96875 -0.460938 6.59375 -0.257812 6.125 -0.09375 C 5.65625 0.0625 5.1875 0.140625 4.71875 0.140625 C 4.007812 0.140625 3.351562 -0.0195312 2.75 -0.34375 C 2.144531 -0.675781 1.65625 -1.148438 1.28125 -1.765625 C 0.914062 -2.378906 0.734375 -3.101562 0.734375 -3.9375 C 0.734375 -4.707031 0.898438 -5.398438 1.234375 -6.015625 C 1.578125 -6.640625 2.0625 -7.125 2.6875 -7.46875 C 3.3125 -7.8125 4.039062 -7.984375 4.875 -7.984375 C 5.769531 -7.984375 6.5625 -7.789062 7.25 -7.40625 L 7.25 -6.140625 C 7.019531 -6.554688 6.679688 -6.882812 6.234375 -7.125 C 5.785156 -7.375 5.304688 -7.5 4.796875 -7.5 C 4.148438 -7.5 3.585938 -7.347656 3.109375 -7.046875 C 2.628906 -6.742188 2.265625 -6.328125 2.015625 -5.796875 C 1.765625 -5.265625 1.640625 -4.675781 1.640625 -4.03125 C 1.640625 -3.289062 1.78125 -2.644531 2.0625 -2.09375 C 2.351562 -1.550781 2.738281 -1.132812 3.21875 -0.84375 C 3.707031 -0.550781 4.253906 -0.40625 4.859375 -0.40625 C 5.828125 -0.40625 6.625 -0.6875 7.25 -1.25 Z M 7.25 -0.703125 "/></g></g><g style="fill:#8f5d46;fill-opacity:1;"><g transform="translate(204.054388, 205.892751)"><path style="stroke:none" d="M 1.453125 -6.78125 C 1.453125 -7.09375 1.414062 -7.320312 1.34375 -7.46875 C 1.28125 -7.625 1.203125 -7.726562 1.109375 -7.78125 C 1.015625 -7.84375 0.96875 -7.863281 0.96875 -7.84375 L 2.78125 -7.84375 C 2.78125 -7.863281 2.734375 -7.84375 2.640625 -7.78125 C 2.554688 -7.726562 2.472656 -7.625 2.390625 -7.46875 C 2.316406 -7.320312 2.28125 -7.09375 2.28125 -6.78125 L 2.28125 -0.453125 L 4.15625 -0.453125 C 4.5 -0.453125 4.789062 -0.519531 5.03125 -0.65625 C 5.28125 -0.800781 5.457031 -0.984375 5.5625 -1.203125 L 5.359375 0 L 0.96875 0 C 0.96875 0.0195312 1.015625 0.00390625 1.109375 -0.046875 C 1.203125 -0.109375 1.28125 -0.222656 1.34375 -0.390625 C 1.414062 -0.566406 1.453125 -0.816406 1.453125 -1.140625 Z M 1.453125 -6.78125 "/></g></g><g style="fill:#8f5d46;fill-opacity:1;"><g transform="translate(212.52674, 205.892751)"><path style="stroke:none" d="M 0.734375 -3.828125 C 0.734375 -4.640625 0.90625 -5.359375 1.25 -5.984375 C 1.59375 -6.617188 2.078125 -7.109375 2.703125 -7.453125 C 3.335938 -7.804688 4.0625 -7.984375 4.875 -7.984375 C 5.5625 -7.984375 6.203125 -7.832031 6.796875 -7.53125 C 7.398438 -7.226562 7.878906 -6.773438 8.234375 -6.171875 C 8.597656 -5.578125 8.78125 -4.859375 8.78125 -4.015625 C 8.78125 -3.210938 8.609375 -2.492188 8.265625 -1.859375 C 7.921875 -1.222656 7.429688 -0.726562 6.796875 -0.375 C 6.171875 -0.03125 5.445312 0.140625 4.625 0.140625 C 3.945312 0.140625 3.304688 -0.0078125 2.703125 -0.3125 C 2.109375 -0.613281 1.628906 -1.0625 1.265625 -1.65625 C 0.910156 -2.257812 0.734375 -2.984375 0.734375 -3.828125 Z M 7.875 -3.84375 C 7.875 -4.53125 7.726562 -5.15625 7.4375 -5.71875 C 7.15625 -6.28125 6.765625 -6.71875 6.265625 -7.03125 C 5.765625 -7.34375 5.203125 -7.5 4.578125 -7.5 C 4.015625 -7.5 3.507812 -7.351562 3.0625 -7.0625 C 2.613281 -6.78125 2.265625 -6.375 2.015625 -5.84375 C 1.765625 -5.3125 1.640625 -4.695312 1.640625 -4 C 1.640625 -3.3125 1.78125 -2.6875 2.0625 -2.125 C 2.351562 -1.5625 2.742188 -1.125 3.234375 -0.8125 C 3.734375 -0.5 4.296875 -0.34375 4.921875 -0.34375 C 5.492188 -0.34375 6.003906 -0.484375 6.453125 -0.765625 C 6.898438 -1.054688 7.25 -1.46875 7.5 -2 C 7.75 -2.53125 7.875 -3.144531 7.875 -3.84375 Z M 7.875 -3.84375 "/></g></g><g style="fill:#8f5d46;fill-opacity:1;"><g transform="translate(224.555335, 205.892751)"><path style="stroke:none" d="M 1.6875 -7.390625 C 1.351562 -7.390625 1.078125 -7.320312 0.859375 -7.1875 C 0.640625 -7.0625 0.476562 -6.898438 0.375 -6.703125 L 0.53125 -7.84375 L 5.9375 -7.84375 L 6.109375 -6.703125 C 6.003906 -6.898438 5.84375 -7.0625 5.625 -7.1875 C 5.40625 -7.320312 5.128906 -7.390625 4.796875 -7.390625 L 3.65625 -7.390625 L 3.65625 -1.0625 C 3.65625 -0.757812 3.691406 -0.523438 3.765625 -0.359375 C 3.835938 -0.203125 3.921875 -0.0976562 4.015625 -0.046875 C 4.109375 0.00390625 4.15625 0.0195312 4.15625 0 L 2.34375 0 C 2.34375 0.0195312 2.382812 0.00390625 2.46875 -0.046875 C 2.5625 -0.0976562 2.644531 -0.203125 2.71875 -0.359375 C 2.789062 -0.515625 2.828125 -0.75 2.828125 -1.0625 L 2.828125 -7.390625 Z M 1.6875 -7.390625 "/></g></g><g style="fill:#8f5d46;fill-opacity:1;"><g transform="translate(233.552005, 205.892751)"><path style="stroke:none" d="M 6.0625 0 C 6.0625 0.0195312 6.109375 0.00390625 6.203125 -0.046875 C 6.296875 -0.109375 6.378906 -0.21875 6.453125 -0.375 C 6.523438 -0.53125 6.5625 -0.757812 6.5625 -1.0625 L 6.5625 -3.65625 L 2.28125 -3.65625 L 2.28125 -1.0625 C 2.28125 -0.757812 2.316406 -0.53125 2.390625 -0.375 C 2.472656 -0.21875 2.554688 -0.113281 2.640625 -0.0625 C 2.734375 -0.0078125 2.78125 0.0078125 2.78125 0 L 0.96875 0 C 0.96875 0.0195312 1.015625 0.00390625 1.109375 -0.046875 C 1.203125 -0.109375 1.28125 -0.21875 1.34375 -0.375 C 1.414062 -0.53125 1.453125 -0.757812 1.453125 -1.0625 L 1.453125 -6.78125 C 1.453125 -7.09375 1.414062 -7.320312 1.34375 -7.46875 C 1.28125 -7.625 1.203125 -7.726562 1.109375 -7.78125 C 1.015625 -7.84375 0.96875 -7.863281 0.96875 -7.84375 L 2.78125 -7.84375 C 2.78125 -7.863281 2.734375 -7.84375 2.640625 -7.78125 C 2.554688 -7.726562 2.472656 -7.625 2.390625 -7.46875 C 2.316406 -7.320312 2.28125 -7.09375 2.28125 -6.78125 L 2.28125 -4.15625 L 6.5625 -4.15625 L 6.5625 -6.78125 C 6.5625 -7.09375 6.523438 -7.320312 6.453125 -7.46875 C 6.378906 -7.625 6.296875 -7.726562 6.203125 -7.78125 C 6.109375 -7.84375 6.0625 -7.863281 6.0625 -7.84375 L 7.875 -7.84375 C 7.875 -7.863281 7.828125 -7.84375 7.734375 -7.78125 C 7.648438 -7.726562 7.570312 -7.625 7.5 -7.46875 C 7.425781 -7.320312 7.390625 -7.09375 7.390625 -6.78125 L 7.390625 -1.0625 C 7.390625 -0.757812 7.425781 -0.53125 7.5 -0.375 C 7.582031 -0.21875 7.664062 -0.113281 7.75 -0.0625 C 7.84375 -0.0078125 7.890625 0.0078125 7.890625 0 Z M 6.0625 0 "/></g></g><g style="fill:#8f5d46;fill-opacity:1;"><g transform="translate(244.919505, 205.892751)"><path style="stroke:none" d="M 0.953125 0 C 0.953125 0.0195312 1 0.00390625 1.09375 -0.046875 C 1.1875 -0.109375 1.269531 -0.21875 1.34375 -0.375 C 1.414062 -0.53125 1.453125 -0.757812 1.453125 -1.0625 L 1.453125 -6.78125 C 1.453125 -7.09375 1.414062 -7.320312 1.34375 -7.46875 C 1.28125 -7.625 1.203125 -7.726562 1.109375 -7.78125 C 1.015625 -7.84375 0.96875 -7.863281 0.96875 -7.84375 L 2.78125 -7.84375 C 2.78125 -7.863281 2.734375 -7.84375 2.640625 -7.78125 C 2.554688 -7.726562 2.472656 -7.625 2.390625 -7.46875 C 2.316406 -7.320312 2.28125 -7.09375 2.28125 -6.78125 L 2.28125 -1.0625 C 2.28125 -0.757812 2.316406 -0.53125 2.390625 -0.375 C 2.472656 -0.21875 2.554688 -0.113281 2.640625 -0.0625 C 2.734375 -0.0078125 2.78125 0.0078125 2.78125 0 Z M 0.953125 0 "/></g></g><g style="fill:#8f5d46;fill-opacity:1;"><g transform="translate(251.180608, 205.892751)"><path style="stroke:none" d="M 8.3125 -7.84375 C 8.207031 -7.820312 8.101562 -7.738281 8 -7.59375 C 7.894531 -7.445312 7.84375 -7.1875 7.84375 -6.8125 L 7.84375 0.3125 L 2 -6.484375 L 2 -1.03125 C 2 -0.664062 2.0625 -0.40625 2.1875 -0.25 C 2.320312 -0.101562 2.453125 -0.0195312 2.578125 0 L 0.96875 0 C 1.070312 -0.0195312 1.175781 -0.101562 1.28125 -0.25 C 1.394531 -0.40625 1.453125 -0.664062 1.453125 -1.03125 L 1.453125 -6.734375 C 1.453125 -6.992188 1.363281 -7.226562 1.1875 -7.4375 C 1.019531 -7.65625 0.800781 -7.789062 0.53125 -7.84375 L 1.953125 -7.84375 L 7.296875 -1.609375 L 7.296875 -6.8125 C 7.296875 -7.394531 7.097656 -7.738281 6.703125 -7.84375 Z M 8.3125 -7.84375 "/></g></g><g style="fill:#8f5d46;fill-opacity:1;"><g transform="translate(263.004038, 205.892751)"><path style="stroke:none" d="M 4.78125 0.125 C 4.0625 0.125 3.390625 -0.0234375 2.765625 -0.328125 C 2.148438 -0.628906 1.65625 -1.082031 1.28125 -1.6875 C 0.914062 -2.300781 0.734375 -3.046875 0.734375 -3.921875 C 0.734375 -4.703125 0.910156 -5.398438 1.265625 -6.015625 C 1.617188 -6.628906 2.113281 -7.109375 2.75 -7.453125 C 3.394531 -7.804688 4.132812 -7.984375 4.96875 -7.984375 C 5.5 -7.984375 5.976562 -7.921875 6.40625 -7.796875 C 6.84375 -7.679688 7.1875 -7.550781 7.4375 -7.40625 L 7.4375 -6.140625 C 7.195312 -6.546875 6.84375 -6.875 6.375 -7.125 C 5.914062 -7.375 5.441406 -7.5 4.953125 -7.5 C 4.273438 -7.5 3.6875 -7.359375 3.1875 -7.078125 C 2.6875 -6.796875 2.300781 -6.390625 2.03125 -5.859375 C 1.769531 -5.335938 1.640625 -4.722656 1.640625 -4.015625 C 1.640625 -3.242188 1.789062 -2.582031 2.09375 -2.03125 C 2.40625 -1.488281 2.816406 -1.082031 3.328125 -0.8125 C 3.835938 -0.539062 4.394531 -0.40625 5 -0.40625 C 5.269531 -0.40625 5.550781 -0.4375 5.84375 -0.5 C 6.132812 -0.5625 6.40625 -0.65625 6.65625 -0.78125 L 6.65625 -2.65625 C 6.65625 -2.894531 6.617188 -3.078125 6.546875 -3.203125 C 6.472656 -3.335938 6.390625 -3.429688 6.296875 -3.484375 C 6.203125 -3.546875 6.15625 -3.570312 6.15625 -3.5625 L 7.984375 -3.5625 C 7.984375 -3.570312 7.9375 -3.550781 7.84375 -3.5 C 7.75 -3.457031 7.664062 -3.375 7.59375 -3.25 C 7.519531 -3.125 7.484375 -2.945312 7.484375 -2.71875 L 7.484375 -0.65625 C 7.078125 -0.40625 6.640625 -0.210938 6.171875 -0.078125 C 5.703125 0.0546875 5.238281 0.125 4.78125 0.125 Z M 4.78125 0.125 "/></g></g></g></svg>