<svg width="19" height="19" viewBox="0 0 19 19" fill="none" xmlns="http://www.w3.org/2000/svg">
<path d="M8.7398 13.68C6.0038 13.68 3.7998 11.476 3.7998 8.74005C3.7998 6.00405 6.0038 3.80005 8.7398 3.80005C11.4758 3.80005 13.6798 6.00405 13.6798 8.74005C13.6798 11.476 11.4758 13.68 8.7398 13.68ZM8.7398 4.56005C6.4218 4.56005 4.5598 6.42205 4.5598 8.74005C4.5598 11.058 6.4218 12.92 8.7398 12.92C11.0578 12.92 12.9198 11.058 12.9198 8.74005C12.9198 6.42205 11.0578 4.56005 8.7398 4.56005Z" fill="#6F6F6F"/>
<path d="M12.4192 11.8813L15.8316 15.2937L15.2942 15.8311L11.8818 12.4187L12.4192 11.8813Z" fill="#6F6F6F"/>
</svg>
